<svg version="1.2" xmlns="http://www.w3.org/2000/svg" viewBox="0 3 32 25" width="32" height="25"><style>.a{fill:none}</style><path  d="m10.7 14.8h-7.9q0.2-1.2 0.7-2.4 0.4-1.1 1.1-2.2 0.6-1 1.5-1.9 0.9-0.9 1.9-1.6l2.4-1.6-1.5-2.2-2.3 1.6q-1.5 1-2.8 2.3-1.2 1.3-2 2.9-0.9 1.6-1.3 3.4-0.5 1.7-0.5 3.5v8.9q0 0.5 0.2 1 0.2 0.5 0.6 0.9 0.4 0.3 0.9 0.5 0.5 0.2 1 0.2h8q0.5 0 1-0.2 0.5-0.2 0.9-0.5 0.3-0.4 0.5-0.9 0.2-0.5 0.2-1v-8q0-0.5-0.2-1-0.2-0.5-0.5-0.9-0.4-0.4-0.9-0.6-0.5-0.2-1-0.2z"/><path  d="m29.3 14.8h-7.8q0.2-1.2 0.6-2.4 0.4-1.1 1.1-2.2 0.7-1 1.5-1.9 0.9-0.9 1.9-1.6l2.4-1.6-1.4-2.2-2.4 1.6q-1.5 1-2.7 2.3-1.3 1.3-2.1 2.9-0.9 1.6-1.3 3.4-0.4 1.7-0.4 3.5v8.9q0 0.5 0.2 1 0.2 0.5 0.5 0.9 0.4 0.3 0.9 0.5 0.5 0.2 1 0.2h8q0.5 0 1-0.2 0.5-0.2 0.9-0.5 0.4-0.4 0.6-0.9 0.2-0.5 0.2-1v-8q0-0.5-0.2-1-0.2-0.5-0.6-0.9-0.4-0.4-0.9-0.6-0.5-0.2-1-0.2z"/><path class="a" d="m0 0h32v32h-32z"/></svg>